{
  "accessors": [
    {
      "bufferView": 2,
      "componentType": 5126,
      "count": 65532,
      "max": [
        0.38268598914146423,
        0.9950900077819824,
        0.8676990270614624
      ],
      "min": [
        -0.3843289911746979,
        -0.9940459728240967,
        -0.8622289896011353
      ],
      "type": "VEC3"
    },
    {
      "bufferView": 2,
      "byteOffset": 786384,
      "componentType": 5126,
      "count": 65532,
      "max": [
        0.9999995231628418,
        0.9999799728393555,
        0.9999968409538269
      ],
      "min": [
        -0.9999992847442627,
        -0.9999907612800598,
        -0.9999998807907104
      ],
      "type": "VEC3"
    },
    {
      "bufferView": 1,
      "componentType": 5126,
      "count": 65532,
      "max": [
        0.9958329796791077,
        0.9997109770774841
      ],
      "min": [
        0.00023532100021839142,
        5.687149950972525e-06
      ],
      "type": "VEC2"
    },
    {
      "bufferView": 0,
      "componentType": 5125,
      "count": 65532,
      "type": "SCALAR"
    },
    {
      "bufferView": 2,
      "byteOffset": 1572768,
      "componentType": 5126,
      "count": 65532,
      "max": [
        0.3829190135002136,
        0.9949219822883606,
        0.8667399883270264
      ],
      "min": [
        -0.3840959966182709,
        -0.994163990020752,
        -0.8644160032272339
      ],
      "type": "VEC3"
    },
    {
      "bufferView": 2,
      "byteOffset": 2359152,
      "componentType": 5126,
      "count": 65532,
      "max": [
        0.9999982118606567,
        0.9999086856842041,
        0.9999423027038574
      ],
      "min": [
        -0.9999999403953552,
        -0.9999902248382568,
        -0.9999857544898987
      ],
      "type": "VEC3"
    },
    {
      "bufferView": 1,
      "byteOffset": 524256,
      "componentType": 5126,
      "count": 65532,
      "max": [
        0.9959030151367188,
        0.9988970160484314
      ],
      "min": [
        8.955480006989092e-05,
        3.4032900657621212e-06
      ],
      "type": "VEC2"
    },
    {
      "bufferView": 0,
      "byteOffset": 262128,
      "componentType": 5125,
      "count": 65532,
      "type": "SCALAR"
    },
    {
      "bufferView": 2,
      "byteOffset": 3145536,
      "componentType": 5126,
      "count": 65532,
      "max": [
        0.3850629925727844,
        0.9952210187911987,
        0.8677250146865845
      ],
      "min": [
        -0.3843289911746979,
        -0.994163990020752,
        -0.8644160032272339
      ],
      "type": "VEC3"
    },
    {
      "bufferView": 2,
      "byteOffset": 3931920,
      "componentType": 5126,
      "count": 65532,
      "max": [
        0.9999984502792358,
        0.9999133944511414,
        0.9999819397926331
      ],
      "min": [
        -0.9999989867210388,
        -0.9999969005584717,
        -0.9999690651893616
      ],
      "type": "VEC3"
    },
    {
      "bufferView": 1,
      "byteOffset": 1048512,
      "componentType": 5126,
      "count": 65532,
      "max": [
        0.9954590201377869,
        0.9998610019683838
      ],
      "min": [
        8.955480006989092e-05,
        7.114940217434196e-06
      ],
      "type": "VEC2"
    },
    {
      "bufferView": 0,
      "byteOffset": 524256,
      "componentType": 5125,
      "count": 65532,
      "type": "SCALAR"
    },
    {
      "bufferView": 2,
      "byteOffset": 4718304,
      "componentType": 5126,
      "count": 65532,
      "max": [
        0.38330399990081787,
        0.9950900077819824,
        0.8679959774017334
      ],
      "min": [
        -0.385206013917923,
        -0.994022011756897,
        -0.8632659912109375
      ],
      "type": "VEC3"
    },
    {
      "bufferView": 2,
      "byteOffset": 5504688,
      "componentType": 5126,
      "count": 65532,
      "max": [
        0.9999995827674866,
        0.9998302459716797,
        0.9999958276748657
      ],
      "min": [
        -0.9999985098838806,
        -0.9999948143959045,
        -0.9999997019767761
      ],
      "type": "VEC3"
    },
    {
      "bufferView": 1,
      "byteOffset": 1572768,
      "componentType": 5126,
      "count": 65532,
      "max": [
        0.99583899974823,
        0.9998300075531006
      ],
      "min": [
        3.596399983507581e-05,
        3.455460046097869e-06
      ],
      "type": "VEC2"
    },
    {
      "bufferView": 0,
      "byteOffset": 786384,
      "componentType": 5125,
      "count": 65532,
      "type": "SCALAR"
    },
    {
      "bufferView": 2,
      "byteOffset": 6291072,
      "componentType": 5126,
      "count": 65532,
      "max": [
        0.3850629925727844,
        0.9935020208358765,
        0.865543007850647
      ],
      "min": [
        -0.38361498713493347,
        -0.994163990020752,
        -0.8644160032272339
      ],
      "type": "VEC3"
    },
    {
      "bufferView": 2,
      "byteOffset": 7077456,
      "componentType": 5126,
      "count": 65532,
      "max": [
        0.9999988079071045,
        0.9999722242355347,
        0.9999969601631165
      ],
      "min": [
        -0.9999998211860657,
        -0.9999973773956299,
        -0.999998152256012
      ],
      "type": "VEC3"
    },
    {
      "bufferView": 1,
      "byteOffset": 2097024,
      "componentType": 5126,
      "count": 65532,
      "max": [
        0.9954720139503479,
        0.9993360042572021
      ],
      "min": [
        0.0001781659957487136,
        1.1389400242478587e-05
      ],
      "type": "VEC2"
    },
    {
      "bufferView": 0,
      "byteOffset": 1048512,
      "componentType": 5125,
      "count": 65532,
      "type": "SCALAR"
    },
    {
      "bufferView": 2,
      "byteOffset": 7863840,
      "componentType": 5126,
      "count": 65532,
      "max": [
        0.3843179941177368,
        0.9952210187911987,
        0.8679959774017334
      ],
      "min": [
        -0.385206013917923,
        -0.994163990020752,
        -0.8618239760398865
      ],
      "type": "VEC3"
    },
    {
      "bufferView": 2,
      "byteOffset": 8650224,
      "componentType": 5126,
      "count": 65532,
      "max": [
        0.9999992847442627,
        0.9999339580535889,
        0.999993085861206
      ],
      "min": [
        -0.9999992251396179,
        -0.9999855756759644,
        -0.9999945163726807
      ],
      "type": "VEC3"
    },
    {
      "bufferView": 1,
      "byteOffset": 2621280,
      "componentType": 5126,
      "count": 65532,
      "max": [
        0.99583899974823,
        0.9998610019683838
      ],
      "min": [
        0.00044939201325178146,
        1.4987000213295687e-05
      ],
      "type": "VEC2"
    },
    {
      "bufferView": 0,
      "byteOffset": 1310640,
      "componentType": 5125,
      "count": 65532,
      "type": "SCALAR"
    },
    {
      "bufferView": 2,
      "byteOffset": 9436608,
      "componentType": 5126,
      "count": 65532,
      "max": [
        0.38501599431037903,
        0.9950699806213379,
        0.8676990270614624
      ],
      "min": [
        -0.385206013917923,
        -0.9940459728240967,
        -0.8600530028343201
      ],
      "type": "VEC3"
    },
    {
      "bufferView": 2,
      "byteOffset": 10222992,
      "componentType": 5126,
      "count": 65532,
      "max": [
        0.9999979138374329,
        0.9999737739562988,
        0.9999732375144958
      ],
      "min": [
        -0.9999997615814209,
        -0.9999956488609314,
        -0.9999999403953552
      ],
      "type": "VEC3"
    },
    {
      "bufferView": 1,
      "byteOffset": 3145536,
      "componentType": 5126,
      "count": 65532,
      "max": [
        0.9958170056343079,
        0.9998059868812561
      ],
      "min": [
        0.000494115985929966,
        2.159409996238537e-05
      ],
      "type": "VEC2"
    },
    {
      "bufferView": 0,
      "byteOffset": 1572768,
      "componentType": 5125,
      "count": 65532,
      "type": "SCALAR"
    },
    {
      "bufferView": 2,
      "byteOffset": 11009376,
      "componentType": 5126,
      "count": 65532,
      "max": [
        0.3850629925727844,
        0.9952210187911987,
        0.8670549988746643
      ],
      "min": [
        -0.3836989998817444,
        -0.9941589832305908,
        -0.8615229725837708
      ],
      "type": "VEC3"
    },
    {
      "bufferView": 2,
      "byteOffset": 11795760,
      "componentType": 5126,
      "count": 65532,
      "max": [
        0.9999982714653015,
        0.9999747276306152,
        0.9999319911003113
      ],
      "min": [
        -0.999999463558197,
        -0.999997079372406,
        -0.9999940395355225
      ],
      "type": "VEC3"
    },
    {
      "bufferView": 1,
      "byteOffset": 3669792,
      "componentType": 5126,
      "count": 65532,
      "max": [
        0.99549400806427,
        0.9990450143814087
      ],
      "min": [
        8.955480006989092e-05,
        4.978619926987449e-06
      ],
      "type": "VEC2"
    },
    {
      "bufferView": 0,
      "byteOffset": 1834896,
      "componentType": 5125,
      "count": 65532,
      "type": "SCALAR"
    },
    {
      "bufferView": 2,
      "byteOffset": 12582144,
      "componentType": 5126,
      "count": 65532,
      "max": [
        0.3850629925727844,
        0.9952210187911987,
        0.8679959774017334
      ],
      "min": [
        -0.38513699173927307,
        -0.9939550161361694,
        -0.8633949756622314
      ],
      "type": "VEC3"
    },
    {
      "bufferView": 2,
      "byteOffset": 13368528,
      "componentType": 5126,
      "count": 65532,
      "max": [
        0.9999989867210388,
        0.9999855756759644,
        0.9999703764915466
      ],
      "min": [
        -1.0,
        -0.9999977946281433,
        -0.9999831318855286
      ],
      "type": "VEC3"
    },
    {
      "bufferView": 1,
      "byteOffset": 4194048,
      "componentType": 5126,
      "count": 65532,
      "max": [
        0.99549400806427,
        0.9996110200881958
      ],
      "min": [
        0.0003949209931306541,
        2.5755200113053434e-05
      ],
      "type": "VEC2"
    },
    {
      "bufferView": 0,
      "byteOffset": 2097024,
      "componentType": 5125,
      "count": 65532,
      "type": "SCALAR"
    },
    {
      "bufferView": 2,
      "byteOffset": 14154912,
      "componentType": 5126,
      "count": 65532,
      "max": [
        0.38501599431037903,
        0.9950240254402161,
        0.8677250146865845
      ],
      "min": [
        -0.385206013917923,
        -0.9941239953041077,
        -0.8644160032272339
      ],
      "type": "VEC3"
    },
    {
      "bufferView": 2,
      "byteOffset": 14941296,
      "componentType": 5126,
      "count": 65532,
      "max": [
        0.9999998807907104,
        0.9999194741249084,
        0.9999353289604187
      ],
      "min": [
        -0.9999991655349731,
        -0.9999932646751404,
        -0.9999938011169434
      ],
      "type": "VEC3"
    },
    {
      "bufferView": 1,
      "byteOffset": 4718304,
      "componentType": 5126,
      "count": 65532,
      "max": [
        0.9959949851036072,
        0.9998059868812561
      ],
      "min": [
        0.00018210700363852084,
        4.978619926987449e-06
      ],
      "type": "VEC2"
    },
    {
      "bufferView": 0,
      "byteOffset": 2359152,
      "componentType": 5125,
      "count": 65532,
      "type": "SCALAR"
    },
    {
      "bufferView": 2,
      "byteOffset": 15727680,
      "componentType": 5126,
      "count": 17568,
      "max": [
        0.3787049949169159,
        0.9950240254402161,
        0.8679959774017334
      ],
      "min": [
        -0.38317498564720154,
        -0.9940130114555359,
        -0.8505849838256836
      ],
      "type": "VEC3"
    },
    {
      "bufferView": 2,
      "byteOffset": 15938496,
      "componentType": 5126,
      "count": 17568,
      "max": [
        0.9999980926513672,
        0.9996694922447205,
        0.9998420476913452
      ],
      "min": [
        -0.9999986290931702,
        -0.9999938607215881,
        -0.9998974204063416
      ],
      "type": "VEC3"
    },
    {
      "bufferView": 1,
      "byteOffset": 5242560,
      "componentType": 5126,
      "count": 17568,
      "max": [
        0.9950540065765381,
        0.998432993888855
      ],
      "min": [
        0.0014700599713250995,
        0.00013323599705472589
      ],
      "type": "VEC2"
    },
    {
      "bufferView": 0,
      "byteOffset": 2621280,
      "componentType": 5125,
      "count": 17568,
      "type": "SCALAR"
    }
  ],
  "asset": {
    "extras": {
      "author": "silas.polley (https://sketchfab.com/silas.polley)",
      "license": "CC-BY-4.0 (http://creativecommons.org/licenses/by/4.0/)",
      "source": "https://sketchfab.com/3d-models/gena-the-crocodile-6b6d0be8596a48ef830921b94bc82dcc",
      "title": "gena the crocodile"
    },
    "generator": "Sketchfab-16.63.0",
    "version": "2.0"
  },
  "bufferViews": [
    {
      "buffer": 0,
      "byteLength": 2691552,
      "name": "floatBufferViews",
      "target": 34963
    },
    {
      "buffer": 0,
      "byteLength": 5383104,
      "byteOffset": 2691552,
      "byteStride": 8,
      "name": "floatBufferViews",
      "target": 34962
    },
    {
      "buffer": 0,
      "byteLength": 16149312,
      "byteOffset": 8074656,
      "byteStride": 12,
      "name": "floatBufferViews",
      "target": 34962
    }
  ],
  "buffers": [
    {
      "byteLength": 24223968,
      "uri": "scene.bin"
    }
  ],
  "images": [
    {
      "uri": "textures/Material.001_baseColor.png"
    }
  ],
  "materials": [
    {
      "doubleSided": true,
      "name": "Material.001",
      "pbrMetallicRoughness": {
        "baseColorTexture": {
          "index": 0
        },
        "metallicFactor": 0.0,
        "roughnessFactor": 0.8211145618000169
      }
    }
  ],
  "meshes": [
    {
      "name": "temp_Material.001_0",
      "primitives": [
        {
          "attributes": {
            "NORMAL": 1,
            "POSITION": 0,
            "TEXCOORD_0": 2
          },
          "indices": 3,
          "material": 0,
          "mode": 4
        }
      ]
    },
    {
      "name": "temp_Material.001_0",
      "primitives": [
        {
          "attributes": {
            "NORMAL": 5,
            "POSITION": 4,
            "TEXCOORD_0": 6
          },
          "indices": 7,
          "material": 0,
          "mode": 4
        }
      ]
    },
    {
      "name": "temp_Material.001_0",
      "primitives": [
        {
          "attributes": {
            "NORMAL": 9,
            "POSITION": 8,
            "TEXCOORD_0": 10
          },
          "indices": 11,
          "material": 0,
          "mode": 4
        }
      ]
    },
    {
      "name": "temp_Material.001_0",
      "primitives": [
        {
          "attributes": {
            "NORMAL": 13,
            "POSITION": 12,
            "TEXCOORD_0": 14
          },
          "indices": 15,
          "material": 0,
          "mode": 4
        }
      ]
    },
    {
      "name": "temp_Material.001_0",
      "primitives": [
        {
          "attributes": {
            "NORMAL": 17,
            "POSITION": 16,
            "TEXCOORD_0": 18
          },
          "indices": 19,
          "material": 0,
          "mode": 4
        }
      ]
    },
    {
      "name": "temp_Material.001_0",
      "primitives": [
        {
          "attributes": {
            "NORMAL": 21,
            "POSITION": 20,
            "TEXCOORD_0": 22
          },
          "indices": 23,
          "material": 0,
          "mode": 4
        }
      ]
    },
    {
      "name": "temp_Material.001_0",
      "primitives": [
        {
          "attributes": {
            "NORMAL": 25,
            "POSITION": 24,
            "TEXCOORD_0": 26
          },
          "indices": 27,
          "material": 0,
          "mode": 4
        }
      ]
    },
    {
      "name": "temp_Material.001_0",
      "primitives": [
        {
          "attributes": {
            "NORMAL": 29,
            "POSITION": 28,
            "TEXCOORD_0": 30
          },
          "indices": 31,
          "material": 0,
          "mode": 4
        }
      ]
    },
    {
      "name": "temp_Material.001_0",
      "primitives": [
        {
          "attributes": {
            "NORMAL": 33,
            "POSITION": 32,
            "TEXCOORD_0": 34
          },
          "indices": 35,
          "material": 0,
          "mode": 4
        }
      ]
    },
    {
      "name": "temp_Material.001_0",
      "primitives": [
        {
          "attributes": {
            "NORMAL": 37,
            "POSITION": 36,
            "TEXCOORD_0": 38
          },
          "indices": 39,
          "material": 0,
          "mode": 4
        }
      ]
    },
    {
      "name": "temp_Material.001_0",
      "primitives": [
        {
          "attributes": {
            "NORMAL": 41,
            "POSITION": 40,
            "TEXCOORD_0": 42
          },
          "indices": 43,
          "material": 0,
          "mode": 4
        }
      ]
    }
  ],
  "nodes": [
    {
      "children": [
        1
      ],
      "matrix": [
        1.0,
        0.0,
        0.0,
        0.0,
        0.0,
        2.220446049250313e-16,
        -1.0,
        0.0,
        0.0,
        1.0,
        2.220446049250313e-16,
        0.0,
        0.0,
        0.0,
        0.0,
        1.0
      ],
      "name": "Sketchfab_model"
    },
    {
      "children": [
        2
      ],
      "matrix": [
        0.009999999776482582,
        0.0,
        0.0,
        0.0,
        0.0,
        0.0,
        0.009999999776482582,
        0.0,
        0.0,
        -0.009999999776482582,
        0.0,
        0.0,
        0.0,
        0.0,
        0.0,
        1.0
      ],
      "name": "gena_the_crocodile_fr_0325183604_texture.fbx"
    },
    {
      "children": [
        3
      ],
      "name": "RootNode"
    },
    {
      "children": [
        4,
        5,
        6,
        7,
        8,
        9,
        10,
        11,
        12,
        13,
        14
      ],
      "matrix": [
        100.0,
        0.0,
        0.0,
        0.0,
        0.0,
        99.99999999999972,
        -7.5497901264043296e-06,
        0.0,
        0.0,
        7.5497901264043296e-06,
        99.99999999999972,
        0.0,
        0.0,
        0.0,
        0.0,
        1.0
      ],
      "name": "temp"
    },
    {
      "mesh": 0,
      "name": "temp_Material.001_0"
    },
    {
      "mesh": 1,
      "name": "temp_Material.001_0"
    },
    {
      "mesh": 2,
      "name": "temp_Material.001_0"
    },
    {
      "mesh": 3,
      "name": "temp_Material.001_0"
    },
    {
      "mesh": 4,
      "name": "temp_Material.001_0"
    },
    {
      "mesh": 5,
      "name": "temp_Material.001_0"
    },
    {
      "mesh": 6,
      "name": "temp_Material.001_0"
    },
    {
      "mesh": 7,
      "name": "temp_Material.001_0"
    },
    {
      "mesh": 8,
      "name": "temp_Material.001_0"
    },
    {
      "mesh": 9,
      "name": "temp_Material.001_0"
    },
    {
      "mesh": 10,
      "name": "temp_Material.001_0"
    }
  ],
  "samplers": [
    {
      "magFilter": 9729,
      "minFilter": 9987,
      "wrapS": 10497,
      "wrapT": 10497
    }
  ],
  "scene": 0,
  "scenes": [
    {
      "name": "Sketchfab_Scene",
      "nodes": [
        0
      ]
    }
  ],
  "textures": [
    {
      "sampler": 0,
      "source": 0
    }
  ]
}
